<?xml version="1.0" encoding="UTF-8"?>
<!DOCTYPE svg PUBLIC "-//W3C//DTD SVG 1.1//EN" "http://www.w3.org/Graphics/SVG/1.1/DTD/svg11.dtd">
<!-- Creator: CorelDRAW 2020 (64 Bit) -->
<svg xmlns="http://www.w3.org/2000/svg" xml:space="preserve" width="5.2902mm" height="5.2905mm" version="1.1" style="shape-rendering:geometricPrecision; text-rendering:geometricPrecision; image-rendering:optimizeQuality; fill-rule:evenodd; clip-rule:evenodd"
viewBox="0 0 7.07 7.07"
 xmlns:xlink="http://www.w3.org/1999/xlink"
 xmlns:xodm="http://www.corel.com/coreldraw/odm/2003">
 <defs>
  <style type="text/css">
   <![CDATA[
    .fil0 {fill:#F7ADAF;fill-rule:nonzero}
   ]]>
  </style>
 </defs>
 <g id="Camada_x0020_1">
  <metadata id="CorelCorpID_0Corel-Layer"/>
  <path class="fil0" d="M3.53 7.07c-1.95,0 -3.53,-1.58 -3.53,-3.53 0,-1.95 1.58,-3.53 3.53,-3.53 1.95,0 3.53,1.58 3.53,3.53 0,1.95 -1.58,3.53 -3.53,3.53l0 0zm-1.71 -2.9c-0.04,0.05 -0.06,0.11 -0.06,0.16 0,0.14 0.11,0.27 0.26,0.27l3.01 0c0.16,0 0.27,-0.13 0.27,-0.27 0,-0.06 -0.02,-0.11 -0.06,-0.16 -0.43,-0.55 -1.15,-1.48 -1.51,-1.94 -0.05,-0.07 -0.13,-0.1 -0.21,-0.1 -0.08,0 -0.16,0.04 -0.21,0.1l-1.5 1.94z"/>
 </g>
</svg>
