<?xml version="1.0" encoding="UTF-8"?>
<!DOCTYPE svg PUBLIC "-//W3C//DTD SVG 1.1//EN" "http://www.w3.org/Graphics/SVG/1.1/DTD/svg11.dtd">
<!-- Creator: CorelDRAW 2020 (64 Bit) -->
<svg xmlns="http://www.w3.org/2000/svg" xml:space="preserve" width="5.2904mm" height="5.2906mm" version="1.1" style="shape-rendering:geometricPrecision; text-rendering:geometricPrecision; image-rendering:optimizeQuality; fill-rule:evenodd; clip-rule:evenodd"
viewBox="0 0 9.49 9.49"
 xmlns:xlink="http://www.w3.org/1999/xlink"
 xmlns:xodm="http://www.corel.com/coreldraw/odm/2003">
 <defs>
  <style type="text/css">
   <![CDATA[
    .fil0 {fill:#F7ADAF;fill-rule:nonzero}
   ]]>
  </style>
 </defs>
 <g id="Camada_x0020_1">
  <metadata id="CorelCorpID_0Corel-Layer"/>
  <path class="fil0" d="M4.74 0c2.62,0 4.74,2.13 4.74,4.74 0,2.62 -2.13,4.74 -4.74,4.74 -2.62,0 -4.74,-2.13 -4.74,-4.74 0,-2.62 2.13,-4.74 4.74,-4.74l0 0zm2.3 3.9c0.05,-0.07 0.07,-0.14 0.07,-0.22 0,-0.18 -0.15,-0.36 -0.36,-0.36l-4.03 0c-0.21,0 -0.36,0.17 -0.36,0.36 0,0.07 0.02,0.15 0.08,0.22 0.57,0.74 1.54,1.99 2.02,2.61 0.07,0.09 0.17,0.14 0.28,0.14 0.11,0 0.21,-0.05 0.28,-0.14l2.01 -2.61z"/>
 </g>
</svg>
