<?xml version="1.0" encoding="UTF-8"?>
<!DOCTYPE svg PUBLIC "-//W3C//DTD SVG 1.1//EN" "http://www.w3.org/Graphics/SVG/1.1/DTD/svg11.dtd">
<!-- Creator: CorelDRAW 2020 (64 Bit) -->
<svg xmlns="http://www.w3.org/2000/svg" xml:space="preserve" width="20.1246mm" height="20.1246mm" version="1.1" style="shape-rendering:geometricPrecision; text-rendering:geometricPrecision; image-rendering:optimizeQuality; fill-rule:evenodd; clip-rule:evenodd"
viewBox="0 0 39.95 39.95"
 xmlns:xlink="http://www.w3.org/1999/xlink"
 xmlns:xodm="http://www.corel.com/coreldraw/odm/2003">
 <defs>
  <style type="text/css">
   <![CDATA[
    .fil0 {fill:url(#id0)}
    .fil1 {fill:url(#id1)}
   ]]>
  </style>
  <linearGradient id="id0" gradientUnits="userSpaceOnUse" x1="-0" y1="19.98" x2="39.95" y2="19.98">
   <stop offset="0" style="stop-opacity:1; stop-color:#C2A152"/>
   <stop offset="0.341176" style="stop-opacity:1; stop-color:#F9E582"/>
   <stop offset="0.709804" style="stop-opacity:1; stop-color:#D7B85D"/>
   <stop offset="1" style="stop-opacity:1; stop-color:#C7A756"/>
  </linearGradient>
  <linearGradient id="id1" gradientUnits="userSpaceOnUse" x1="2.84" y1="20.49" x2="34.4" y2="20.49">
   <stop offset="0" style="stop-opacity:1; stop-color:#C2A152"/>
   <stop offset="0.341176" style="stop-opacity:1; stop-color:#F9E582"/>
   <stop offset="0.709804" style="stop-opacity:1; stop-color:#D7B85D"/>
   <stop offset="1" style="stop-opacity:1; stop-color:#CBAC5A"/>
  </linearGradient>
 </defs>
 <g id="Camada_x0020_1">
  <metadata id="CorelCorpID_0Corel-Layer"/>
  <g id="_2234581829360">
   <path class="fil0" d="M19.98 1.4c-5.13,0 -9.77,2.08 -13.14,5.44 -3.36,3.36 -5.44,8.01 -5.44,13.14 0,5.13 2.08,9.77 5.44,13.13 3.36,3.36 8.01,5.44 13.14,5.44 5.13,0 9.77,-2.08 13.13,-5.44 3.36,-3.36 5.44,-8.01 5.44,-13.13 0,-5.13 -2.08,-9.77 -5.44,-13.14 -3.36,-3.36 -8.01,-5.44 -13.13,-5.44zm-14.13 4.45c3.61,-3.61 8.61,-5.85 14.13,-5.85 5.52,0 10.51,2.24 14.13,5.85 3.61,3.61 5.85,8.61 5.85,14.13 0,5.52 -2.24,10.51 -5.85,14.13 -3.61,3.61 -8.61,5.85 -14.13,5.85 -5.52,0 -10.51,-2.24 -14.13,-5.85 -3.61,-3.61 -5.85,-8.61 -5.85,-14.13 0,-5.52 2.24,-10.51 5.85,-14.13z"/>
   <path class="fil1" d="M34.17 15.52c0.03,0.08 0.22,-0.03 0.22,-0.03 0,-1.59 0,-3.17 0,-4.76 -0.09,-0.01 -0.18,-0.01 -0.27,-0.01 -0.08,0.77 -0.99,0.61 -2.11,0.2 -2.87,-0.88 -5.43,-0.58 -7.63,1.15 -0.37,0.38 -0.69,0.79 -0.98,1.19 0.05,-0.27 0.08,-0.54 0.1,-0.79 -0.13,0.45 -0.26,0.88 -0.43,1.28 -0.22,0.36 -0.42,0.72 -0.58,1.09 -0.2,0.28 -0.42,0.54 -0.67,0.76 1.33,-1.92 1.13,-3.7 0.67,-5.39 0.65,3.41 -0.66,6.11 -4.77,7.79l-3.35 -7.53c-1.9,0 -3.78,0 -5.67,0 0,0 0,0.38 0,0.38 0.74,-0.15 1.57,0.63 2.47,2l0 9.35 0.68 -0.67 0 -8.25c1.96,3.44 4.14,9.78 6.26,14.41 0.4,0 0.79,0 1.18,0 0.39,-0.93 0.77,-1.84 1.15,-2.77 0.11,-0.33 0.13,-0.61 0,-0.81l-2.54 -5.71c1.45,-0.31 2.98,-1.05 4.05,-2 -1.63,6.81 5.45,14.19 12.27,14.37 0.06,-0.1 0.12,-0.2 0.17,-0.31 -3.2,-0.79 -5.78,-2.86 -7.72,-6.35 -4.26,-13.08 4.8,-17.78 7.5,-8.59zm-29.89 8.35c2.2,3.93 9.29,6.74 14.64,6.51 -0.22,-0.5 -0.78,-0.84 -1.73,-0.99 -9.59,-2.6 -13.22,-8.22 -12.72,-15.97 -0.56,3.9 -0.5,7.88 2.98,11.78 -2.15,-1.45 -3.49,-3.76 -4.61,-6.48 0.47,2.44 1.41,4.99 5.68,8.25 -1.44,-0.63 -2.86,-1.66 -4.24,-3.1l0 0zm14.38 4.79c-2.22,-1.94 -5.34,-5.02 -7.74,-5.32 -0.87,-0.1 -1.14,0.49 -1.87,1.16 0.56,-1.1 1.09,-1.62 1.92,-1.51 2.43,0.33 6.73,4.72 7.69,5.67z"/>
  </g>
 </g>
</svg>
