<?xml version="1.0" encoding="UTF-8"?>
<!DOCTYPE svg PUBLIC "-//W3C//DTD SVG 1.1//EN" "http://www.w3.org/Graphics/SVG/1.1/DTD/svg11.dtd">
<!-- Creator: CorelDRAW 2020 (64 Bit) -->
<svg xmlns="http://www.w3.org/2000/svg" xml:space="preserve" width="9.3662mm" height="9.3133mm" version="1.1" style="shape-rendering:geometricPrecision; text-rendering:geometricPrecision; image-rendering:optimizeQuality; fill-rule:evenodd; clip-rule:evenodd"
viewBox="0 0 23.21 23.07"
 xmlns:xlink="http://www.w3.org/1999/xlink"
 xmlns:xodm="http://www.corel.com/coreldraw/odm/2003">
 <defs>
  <style type="text/css">
   <![CDATA[
    .fil0 {fill:#FEFEFE;fill-rule:nonzero}
   ]]>
  </style>
 </defs>
 <g id="Camada_x0020_1">
  <metadata id="CorelCorpID_0Corel-Layer"/>
  <path class="fil0" d="M23.21 11.6c0,-6.42 -5.18,-11.6 -11.6,-11.6 -6.42,0 -11.6,5.18 -11.6,11.6 0,5.77 4.26,10.55 9.77,11.47l0 -8.13 -2.95 0 0 -3.34 2.95 0 0 -2.56c0,-2.88 1.7,-4.52 4.39,-4.52 1.25,0 2.62,0.2 2.62,0.2l0 2.88 -1.44 0c-1.44,0 -1.9,0.92 -1.9,1.84l0 2.16 3.21 0 -0.52 3.34 -2.69 0 0 8.13c5.51,-0.92 9.77,-5.7 9.77,-11.47z"/>
 </g>
</svg>
