<?xml version="1.0" encoding="UTF-8"?>
<!DOCTYPE svg PUBLIC "-//W3C//DTD SVG 1.1//EN" "http://www.w3.org/Graphics/SVG/1.1/DTD/svg11.dtd">
<!-- Creator: CorelDRAW 2020 (64 Bit) -->
<svg xmlns="http://www.w3.org/2000/svg" xml:space="preserve" width="9.3662mm" height="9.3661mm" version="1.1" style="shape-rendering:geometricPrecision; text-rendering:geometricPrecision; image-rendering:optimizeQuality; fill-rule:evenodd; clip-rule:evenodd"
viewBox="0 0 20.56 20.56"
 xmlns:xlink="http://www.w3.org/1999/xlink"
 xmlns:xodm="http://www.corel.com/coreldraw/odm/2003">
 <defs>
  <style type="text/css">
   <![CDATA[
    .fil0 {fill:#FEFEFE;fill-rule:nonzero}
    .fil1 {fill:#F7ADAF;fill-rule:nonzero}
   ]]>
  </style>
 </defs>
 <g id="Camada_x0020_1">
  <metadata id="CorelCorpID_0Corel-Layer"/>
  <path class="fil0" d="M10.28 20.56c5.68,0 10.28,-4.6 10.28,-10.28 0,-5.68 -4.6,-10.28 -10.28,-10.28 -5.68,0 -10.28,4.6 -10.28,10.28 0,5.68 4.6,10.28 10.28,10.28z"/>
  <path class="fil1" d="M13.47 6.45c-0.41,0 -0.7,0.29 -0.7,0.7 0,0.41 0.29,0.7 0.7,0.7 0.41,0 0.7,-0.29 0.7,-0.7 0,-0.41 -0.29,-0.7 -0.7,-0.7z"/>
  <path class="fil1" d="M10.34 7.32c-1.63,0 -2.96,1.34 -2.96,2.96 0,1.63 1.34,2.96 2.96,2.96 1.63,0 2.96,-1.34 2.96,-2.96 0,-1.63 -1.34,-2.96 -2.96,-2.96zm0 4.88c-1.04,0 -1.92,-0.87 -1.92,-1.92 0,-1.05 0.87,-1.92 1.92,-1.92 1.05,0 1.92,0.87 1.92,1.92 0,1.05 -0.87,1.92 -1.92,1.92z"/>
  <path class="fil1" d="M12.66 16.32l-4.82 0c-1.97,0 -3.6,-1.63 -3.6,-3.6l0 -4.82c0,-1.97 1.63,-3.6 3.6,-3.6l4.82 0c1.97,0 3.6,1.63 3.6,3.6l0 4.82c0.06,1.97 -1.57,3.6 -3.6,3.6zm-4.76 -10.92c-1.39,0 -2.5,1.1 -2.5,2.5l0 4.82c0,1.39 1.1,2.5 2.5,2.5l4.82 0c1.39,0 2.5,-1.1 2.5,-2.5l0 -4.82c0,-1.39 -1.1,-2.5 -2.5,-2.5l-4.82 0z"/>
 </g>
</svg>
