<?xml version="1.0" encoding="UTF-8"?>
<!DOCTYPE svg PUBLIC "-//W3C//DTD SVG 1.1//EN" "http://www.w3.org/Graphics/SVG/1.1/DTD/svg11.dtd">
<!-- Creator: CorelDRAW 2020 (64 Bit) -->
<svg xmlns="http://www.w3.org/2000/svg" xml:space="preserve" width="53.2539mm" height="51.9708mm" version="1.1" style="shape-rendering:geometricPrecision; text-rendering:geometricPrecision; image-rendering:optimizeQuality; fill-rule:evenodd; clip-rule:evenodd"
viewBox="0 0 584.16 570.08"
 xmlns:xlink="http://www.w3.org/1999/xlink"
 xmlns:xodm="http://www.corel.com/coreldraw/odm/2003">
 <defs>
  <style type="text/css">
   <![CDATA[
    .str0 {stroke:#93B5A3;stroke-width:2.75;stroke-miterlimit:22.9256}
    .fil4 {fill:none;fill-rule:nonzero}
    .fil0 {fill:#FEFEFE}
    .fil2 {fill:#93B5A3;fill-rule:nonzero}
    .fil3 {fill:white;fill-rule:nonzero}
    .fil5 {fill:url(#id0)}
    .fil1 {fill:url(#id1)}
   ]]>
  </style>
  <linearGradient id="id0" gradientUnits="userSpaceOnUse" x1="115.81" y1="201.59" x2="394.83" y2="201.59">
   <stop offset="0" style="stop-opacity:1; stop-color:#C2A152"/>
   <stop offset="0.341176" style="stop-opacity:1; stop-color:#F9E582"/>
   <stop offset="0.709804" style="stop-opacity:1; stop-color:#D7B85D"/>
   <stop offset="1" style="stop-opacity:1; stop-color:#CBAC5A"/>
  </linearGradient>
  <linearGradient id="id1" gradientUnits="userSpaceOnUse" xlink:href="#id0" x1="-2.38" y1="325.67" x2="580.94" y2="325.67">
  </linearGradient>
 </defs>
 <g id="Camada_x0020_1">
  <metadata id="CorelCorpID_0Corel-Layer"/>
  <path class="fil0" d="M490.35 91.71c-50.7,-49.48 -120.74,-80.08 -198.1,-80.08 -77.36,0 -147.4,30.6 -198.1,80.08 -50.7,49.47 -82.05,117.83 -82.05,193.33 0,75.5 31.36,143.85 82.05,193.33 50.7,49.48 120.74,80.08 198.1,80.08 77.36,0 147.41,-30.6 198.1,-80.08 50.7,-49.48 82.05,-117.83 82.05,-193.33 0,-75.5 -31.36,-143.85 -82.05,-193.33z"/>
  <path class="fil1" d="M292.08 0c80.65,0 153.67,31.9 206.53,83.49 52.86,51.58 85.55,122.85 85.55,201.55 0,78.71 -32.69,149.97 -85.55,201.55 -52.86,51.58 -125.88,83.49 -206.53,83.49 -80.65,0 -153.67,-31.91 -206.53,-83.49 -52.86,-51.58 -85.55,-122.84 -85.55,-201.55 0,-78.71 32.69,-149.97 85.55,-201.55 52.86,-51.58 125.88,-83.49 206.53,-83.49zm198.1 91.71c-50.7,-49.48 -120.74,-80.08 -198.1,-80.08 -77.36,0 -147.4,30.6 -198.1,80.08 -50.7,49.47 -82.05,117.83 -82.05,193.33 0,75.5 31.36,143.85 82.05,193.33 50.7,49.48 120.74,80.08 198.1,80.08 77.36,0 147.41,-30.6 198.1,-80.08 50.7,-49.48 82.05,-117.83 82.05,-193.33 0,-75.5 -31.36,-143.85 -82.05,-193.33z"/>
  <g id="_1871328909600">
   <path class="fil2" d="M55.04 334.63c1.72,0.25 2.72,0.45 3.48,0.71 1.16,0.4 1.41,1.36 1.41,2.23 -0.31,4.69 -1.32,17.72 -1.81,21.54 -0.31,2.48 -0.65,3.13 -2.21,3.59 -0.65,0.16 -1.52,0.25 -2.48,0.4 -0.16,0.2 -0.2,1.27 0,1.47 0.85,0 3.33,-0.16 6.12,-0.16 2.57,0 5,0.16 5.96,0.16 0.25,-0.16 0.36,-1.27 0.16,-1.47 -1.52,-0.2 -2.37,-0.31 -3.17,-0.56 -1.52,-0.4 -1.67,-1.41 -1.67,-3.28 0.04,-4.2 0.71,-15.45 1,-19.89 0.04,-0.16 0.16,-0.2 0.25,-0.09 1.76,4.2 9.33,21.05 10.6,25.29 0.2,0.04 1.32,0 1.47,-0.11 1.72,-4.84 10,-22.01 11.36,-25.09 0.11,-0.09 0.2,-0.09 0.25,0 0.11,4.53 0.25,17.66 0.2,21.01 0,1.07 -0.25,1.87 -1.36,2.17 -0.65,0.2 -1.52,0.36 -2.72,0.56 -0.2,0.2 -0.16,1.27 0,1.47 1.32,-0.04 3.93,-0.16 6.72,-0.16 3.08,0 5.45,0.16 6.65,0.16 0.2,-0.31 0.25,-1.21 0.04,-1.47 -1.21,-0.16 -2.08,-0.25 -2.77,-0.4 -1.52,-0.4 -1.81,-1.12 -1.96,-2.88 -0.25,-3.48 -0.65,-19.49 -0.56,-22.61 0,-1.05 0.36,-1.72 1.41,-2.01 0.76,-0.2 1.72,-0.31 3.28,-0.56 0.2,-0.2 0.2,-1.32 0,-1.41 -2.17,0 -4,0.16 -8.93,0.16 -0.11,0.85 -0.4,1.61 -0.85,2.68 -2.17,5 -8.93,18.97 -9.8,20.54 -0.04,0.11 -0.16,0.11 -0.2,0.04 -0.8,-1.41 -6.65,-13.84 -9.6,-20.34 -0.56,-1.16 -0.8,-1.87 -0.96,-2.92 -5.16,0 -7.48,-0.16 -9.2,-0.16 -0.2,0.11 -0.31,1.27 -0.09,1.41l-0.02 -0.02zm49.47 28.46c-0.2,0.2 -0.2,1.27 0,1.47 0.96,0 2.52,-0.16 5.4,-0.16 2.83,0 5.4,0.16 6.45,0.16 0.16,-0.2 0.25,-1.27 0.11,-1.47 -0.96,-0.09 -1.81,-0.25 -2.43,-0.4 -1.56,-0.4 -1.67,-0.96 -1.61,-1.81 0.11,-1.21 1.72,-5.45 2.72,-8.17 0.04,-0.16 0.31,-0.45 0.51,-0.45l8.93 0c0.11,0 0.4,0.2 0.45,0.36 0.91,2.28 2.43,6.52 3.04,8.68 0.16,0.45 0.11,0.96 -0.56,1.27 -0.76,0.25 -1.67,0.4 -2.77,0.56 -0.2,0.2 -0.11,1.27 0.04,1.47 1.05,-0.04 4.13,-0.16 6.61,-0.16 2.28,0 4.84,0.11 6.16,0.16 0.16,-0.2 0.31,-1.32 0.11,-1.47 -3.64,-0.45 -4,-0.71 -5.45,-4.08 -1.76,-4.2 -7.37,-20.16 -8.37,-23.01 -0.36,-0.96 -0.6,-1.85 -0.8,-2.61 -0.16,0 -0.65,0.04 -1.67,0.04 -0.85,0 -1.47,-0.04 -1.67,-0.04 -0.11,0.71 -0.45,1.81 -0.85,2.86 -1.12,3.21 -5.85,16.05 -8.44,22.17 -1.67,3.88 -2.28,4.24 -5.92,4.69l-0 -0.04zm15.8 -24.49c0.8,2.17 2.72,7.75 3.73,10.87 0.11,0.2 -0.04,0.4 -0.16,0.4 -0.51,0.04 -2.17,0.04 -3.37,0.04 -1.92,0 -3.53,0 -4.04,-0.04 -0.16,-0.04 -0.2,-0.16 -0.2,-0.33 0.85,-2.68 2.92,-8.35 3.79,-10.85 0.04,-0.11 0.2,-0.07 0.25,-0.07l0 -0.02zm27.37 -3.97c1,0.09 1.96,0.25 2.72,0.4 1.25,0.31 1.61,0.91 1.67,2.32 0.04,1.56 0.04,6.61 0.04,11.76 0,2.77 -0.04,9.64 -0.11,10.8 -0.11,1.92 -0.51,2.52 -1.72,2.77 -0.65,0.16 -1.47,0.25 -2.57,0.4 -0.25,0.2 -0.25,1.27 0,1.47 0.96,0 3.13,-0.16 6.41,-0.16 3.33,0 5.76,0.16 6.72,0.16 0.25,-0.2 0.36,-1.27 0.11,-1.47 -1.16,-0.16 -2.08,-0.31 -2.83,-0.45 -1.16,-0.25 -1.52,-0.71 -1.61,-2.43 -0.11,-1.67 -0.11,-6.36 -0.11,-9.13 0,-0.04 0.11,-0.31 0.2,-0.31 0.71,0 2.88,-0.04 3.59,0.04 0.4,0 0.91,0.25 1.27,0.76 1.92,2.72 5,7.77 6.92,10.04 0.85,1.05 1.67,1.67 2.43,2.01 1.87,0.91 5.92,1.07 8.08,0.96 0.31,-0.11 0.4,-1.27 0.31,-1.41 -3.04,-0.4 -3.73,-0.65 -5.8,-2.77 -2.48,-2.52 -6.45,-8.08 -8.24,-10.89 -0.04,-0.11 0,-0.25 0.11,-0.36 3.04,-1.36 5.76,-3.88 5.76,-8.12 0,-4.24 -3.13,-7.77 -9.04,-7.77 -2.01,0 -4.64,0.09 -8.37,0.09 -1.56,0 -4.6,-0.16 -5.8,-0.16 -0.2,0.11 -0.31,1.21 -0.09,1.41l-0.07 0.03zm10.96 0.36c5.4,0 7.81,2.77 7.81,7.52 0,3.28 -1.67,5.09 -3.28,5.85 -0.96,0.4 -3.13,0.51 -6.52,0.4 -0.16,0 -0.25,-0.16 -0.25,-0.25 0,-3.93 0,-10.8 0.11,-12.52 0,-0.25 0.2,-0.65 0.36,-0.76 0.51,-0.2 1.36,-0.25 1.76,-0.25l-0 0zm29.53 -0.36c1.36,0.2 2.32,0.31 3.08,0.56 1.05,0.31 1.16,1.05 1.27,2.32 0.16,2.37 0.16,5.65 0.16,9.8 0,6.61 0,11.81 -0.2,13.21 -0.11,1.16 -0.31,1.87 -1.76,2.17 -0.71,0.2 -1.47,0.31 -2.57,0.4 -0.2,0.16 -0.2,1.32 0.04,1.47 1.61,0 4.13,-0.16 7.01,-0.16 2.48,0 5.29,0.16 6.52,0.16 0.2,-0.16 0.31,-1.27 0.11,-1.47 -1.21,-0.16 -2.28,-0.31 -2.97,-0.51 -1.52,-0.36 -1.72,-1.21 -1.76,-2.68 -0.11,-1.76 -0.11,-6.61 -0.11,-11.61 0,-4.4 -0.04,-8.64 0.11,-10.76 0.09,-1.56 0.31,-2.23 1.47,-2.52 0.6,-0.16 1.47,-0.25 2.57,-0.4 0.16,-0.25 0.11,-1.21 -0.04,-1.41 -1.27,0 -3.64,0.16 -6.25,0.16 -2.63,0 -5.49,-0.16 -6.56,-0.16 -0.16,0.16 -0.25,1.21 -0.04,1.41l-0.06 0.02zm23.21 28.46c-0.2,0.2 -0.2,1.27 0,1.47 0.96,0 2.52,-0.16 5.4,-0.16 2.83,0 5.4,0.16 6.45,0.16 0.16,-0.2 0.25,-1.27 0.09,-1.47 -0.96,-0.09 -1.81,-0.25 -2.43,-0.4 -1.56,-0.4 -1.67,-0.96 -1.61,-1.81 0.11,-1.21 1.72,-5.45 2.72,-8.17 0.04,-0.16 0.31,-0.45 0.51,-0.45l8.93 0c0.11,0 0.4,0.2 0.45,0.36 0.91,2.28 2.43,6.52 3.04,8.68 0.16,0.45 0.11,0.96 -0.56,1.27 -0.76,0.25 -1.67,0.4 -2.77,0.56 -0.2,0.2 -0.11,1.27 0.04,1.47 1.05,-0.04 4.13,-0.16 6.61,-0.16 2.28,0 4.84,0.11 6.16,0.16 0.16,-0.2 0.31,-1.32 0.11,-1.47 -3.64,-0.45 -4,-0.71 -5.45,-4.08 -1.76,-4.2 -7.37,-20.16 -8.37,-23.01 -0.36,-0.96 -0.6,-1.85 -0.8,-2.61 -0.16,0 -0.65,0.04 -1.67,0.04 -0.85,0 -1.47,-0.04 -1.67,-0.04 -0.11,0.71 -0.45,1.81 -0.85,2.86 -1.12,3.21 -5.85,16.05 -8.44,22.17 -1.67,3.88 -2.28,4.24 -5.92,4.69l0.02 -0.04zm15.8 -24.49c0.8,2.17 2.72,7.75 3.73,10.87 0.11,0.2 -0.04,0.4 -0.16,0.4 -0.51,0.04 -2.17,0.04 -3.39,0.04 -1.92,0 -3.53,0 -4.04,-0.04 -0.16,-0.04 -0.2,-0.16 -0.2,-0.33 0.85,-2.68 2.92,-8.35 3.79,-10.85 0.04,-0.11 0.2,-0.07 0.25,-0.07l0.02 -0.02zm26.61 -3.97c1.96,0.2 3.08,0.45 4.04,1.12 1.12,0.6 1.36,1.72 1.36,2.48 -0.11,10.6 -0.25,18.82 -0.45,21.45 -0.09,1.96 -0.76,2.63 -1.92,2.97 -0.76,0.2 -1.56,0.36 -2.68,0.45 -0.16,0.16 -0.16,1.32 0,1.47 1.05,0 2.97,-0.16 6.05,-0.16 2.83,0 5.09,0.16 6.32,0.16 0.16,-0.2 0.31,-1.27 0.11,-1.47 -1.27,-0.16 -2.28,-0.25 -3.04,-0.51 -1.32,-0.31 -1.96,-1 -2.08,-3.04 -0.16,-2.83 -0.16,-14.64 -0.04,-19.84 0,-0.04 0.16,-0.11 0.2,-0.04 3.04,3.79 16.9,21.14 19.58,24.98 0.6,-0.04 2.92,-0.04 3.48,0 -0.04,-1.67 -0.11,-4.6 -0.11,-6.92 0.16,-9.53 0.11,-16.01 0.4,-19.89 0.09,-1.36 0.4,-2.28 1.72,-2.72 0.65,-0.2 1.32,-0.36 2.21,-0.51 0.2,-0.2 0.2,-1.27 0,-1.41 -0.65,0 -3.64,0.16 -5.36,0.16 -3.08,0 -5.4,-0.16 -6.72,-0.16 -0.16,0.16 -0.2,1.21 0,1.41 1.36,0.16 2.48,0.36 3.37,0.6 1.52,0.4 1.81,1.21 1.92,2.68 0.25,3.64 0.2,13.08 0.2,19.98 -0.04,0.04 -0.11,0.09 -0.2,0.04 -2.43,-2.83 -12.77,-15.45 -17.92,-21.9 -1.32,-1.67 -1.61,-2.21 -1.81,-2.72 -0.4,0.04 -1.27,0.04 -2.28,0.04 -2.52,0 -5.04,-0.16 -6.32,-0.16 -0.2,0.16 -0.25,1.27 -0.09,1.41l0.04 0.07zm44.78 28.46c-0.2,0.2 -0.2,1.27 0,1.47 0.96,0 2.52,-0.16 5.4,-0.16 2.83,0 5.4,0.16 6.45,0.16 0.16,-0.2 0.25,-1.27 0.11,-1.47 -0.96,-0.09 -1.81,-0.25 -2.43,-0.4 -1.56,-0.4 -1.67,-0.96 -1.61,-1.81 0.11,-1.21 1.72,-5.45 2.72,-8.17 0.04,-0.16 0.31,-0.45 0.51,-0.45l8.93 0c0.11,0 0.4,0.2 0.45,0.36 0.91,2.28 2.43,6.52 3.04,8.68 0.16,0.45 0.11,0.96 -0.56,1.27 -0.76,0.25 -1.67,0.4 -2.77,0.56 -0.2,0.2 -0.11,1.27 0.04,1.47 1.05,-0.04 4.13,-0.16 6.61,-0.16 2.28,0 4.84,0.11 6.16,0.16 0.16,-0.2 0.31,-1.32 0.11,-1.47 -3.64,-0.45 -4,-0.71 -5.45,-4.08 -1.76,-4.2 -7.37,-20.16 -8.37,-23.01 -0.36,-0.96 -0.6,-1.85 -0.8,-2.61 -0.16,0 -0.65,0.04 -1.67,0.04 -0.85,0 -1.47,-0.04 -1.67,-0.04 -0.11,0.71 -0.45,1.81 -0.85,2.86 -1.12,3.21 -5.85,16.05 -8.44,22.17 -1.67,3.88 -2.28,4.24 -5.92,4.69l-0 -0.04zm15.8 -24.49c0.8,2.17 2.72,7.75 3.73,10.87 0.11,0.2 -0.04,0.4 -0.16,0.4 -0.51,0.04 -2.17,0.04 -3.37,0.04 -1.92,0 -3.53,0 -4.04,-0.04 -0.16,-0.04 -0.2,-0.16 -0.2,-0.33 0.85,-2.68 2.92,-8.35 3.79,-10.85 0.04,-0.11 0.2,-0.07 0.25,-0.07l0 -0.02zm64.04 2.75c0.04,0.25 1.36,0.09 1.56,-0.11 0.04,-2.28 0.51,-6 0.8,-7.77 -2.28,-0.16 -5.65,-1 -9.93,-1 -4.29,0 -7.57,0.85 -10.25,2.32 -5.56,2.97 -8.04,8.44 -8.04,13.88 0,10.49 6.25,16.65 17.52,16.65 3.08,0 6.25,-0.76 7.72,-1.25 1.16,-0.71 3.33,-4.64 3.84,-6.81 -0.11,-0.36 -0.96,-0.8 -1.21,-0.8 -1.32,2.23 -2.52,3.93 -3.79,4.96 -1.27,1.16 -3.37,1.72 -5.56,1.72 -8.97,0 -13.48,-6.81 -13.48,-14.89 0,-8.53 4.2,-13.93 11.52,-13.93 2.43,0 4.6,0.31 6.25,1.12 1.87,0.91 2.52,1.92 3.04,5.96l0 -0.04zm33.46 23.97c5.04,0 10.13,-2.28 13.28,-6.61 2.08,-2.88 3.08,-6.05 3.08,-10.49 0,-8.24 -5.2,-15.74 -15.49,-15.74 -5.2,0 -10.69,2.57 -13.48,6.41 -2.01,2.77 -3.13,6 -3.13,9.73 0,4.53 1.32,8.77 4.33,12.12 2.63,2.83 6.56,4.6 11.41,4.6l0 -0.02zm1.92 -2.21c-2.57,0 -4.53,-0.6 -6.32,-1.72 -4.44,-2.88 -6.41,-8.64 -6.41,-13.93 0,-5.16 1.72,-9.69 5.4,-11.85 1.25,-0.71 2.77,-1.12 4.53,-1.12 2.63,0 4.8,0.76 6.61,2.01 4,2.77 5.8,8.01 5.8,13.48 0,4.64 -1.12,8.84 -4.24,11.36 -1.32,1.12 -3.28,1.76 -5.4,1.76l0.02 0zm30.49 -7.37c-0.25,-0.16 -1.47,0.16 -1.56,0.45 0.16,1.72 0.96,6.92 1.41,7.57 1.21,0.6 4.24,1.56 7.28,1.56 7.12,0 11.21,-4.4 11.21,-9.33 0,-3.68 -2.23,-5.8 -4.84,-7.48 -1.72,-1 -4.24,-2.21 -6.25,-3.53 -2.12,-1.47 -3.44,-2.92 -3.44,-5.76 0.04,-2.48 1.81,-5.16 5.29,-5.16 1.52,0 2.97,0.25 4.08,1.05 1.21,0.8 1.67,2.21 1.96,5.2 0.16,0.25 1.32,0.25 1.47,-0.04 0.2,-2.43 0.51,-5.25 0.85,-6.92 -2.12,-0.25 -4.2,-0.91 -7.68,-0.91 -5.49,0 -9.93,3.13 -9.93,8.53 0,4.53 3.04,7.01 7.52,9.6 4.55,2.68 6.61,4.24 6.61,7.57 0,3.79 -2.83,5.29 -5.4,5.29 -1.92,0 -3.68,-0.4 -4.96,-1.36 -1.72,-1.21 -2.72,-3.24 -3.64,-6.36l0.02 0.04zm53.6 7.37c-1.76,-0.2 -2.61,-0.31 -3.44,-0.56 -1.16,-0.31 -1.56,-0.91 -1.72,-2.68 -0.16,-2.57 -0.16,-16.56 -0.16,-23.97 0,-0.16 0.11,-0.36 0.25,-0.4 1.16,-0.04 4.69,-0.04 7.08,0 0.96,0.04 1.56,0.45 1.96,1.47 0.4,0.96 0.65,2.72 0.8,4.49 0.16,0.2 1.47,0.2 1.61,-0.04 0.25,-2.72 0.65,-6.76 1.16,-8.53 -0.04,-0.11 -0.36,-0.25 -0.51,-0.25 -1.47,0.65 -2.57,0.76 -4.89,0.76l-18.68 0c-1.87,0 -3.17,-0.31 -4.08,-0.76 -0.11,-0.04 -0.56,0.11 -0.56,0.2 -0.11,2.17 -0.6,6.21 -1,8.33 0.11,0.25 1.36,0.56 1.56,0.4 0.71,-1.92 1.36,-3.73 1.96,-4.69 0.6,-1 1.27,-1.36 2.12,-1.41 1.92,-0.04 5.65,-0.04 6.52,0 0.16,0 0.36,0.2 0.36,0.4 0,8.37 -0.04,19.17 -0.2,23.13 -0.04,2.32 -0.31,3.33 -1.92,3.64 -0.76,0.2 -2.01,0.36 -3.57,0.51 -0.16,0.2 -0.2,1.21 0,1.47 1.32,0 3.88,-0.16 7.61,-0.16 3.08,0 6.05,0.16 7.52,0.16 0.25,-0.11 0.36,-1.21 0.2,-1.47l0.02 -0.04zm17.52 0c-0.2,0.2 -0.2,1.27 0,1.47 0.96,0 2.52,-0.16 5.4,-0.16 2.83,0 5.4,0.16 6.45,0.16 0.16,-0.2 0.25,-1.27 0.11,-1.47 -0.96,-0.09 -1.81,-0.25 -2.43,-0.4 -1.56,-0.4 -1.67,-0.96 -1.61,-1.81 0.11,-1.21 1.72,-5.45 2.72,-8.17 0.04,-0.16 0.31,-0.45 0.51,-0.45l8.93 0c0.11,0 0.4,0.2 0.45,0.36 0.91,2.28 2.43,6.52 3.04,8.68 0.16,0.45 0.11,0.96 -0.56,1.27 -0.76,0.25 -1.67,0.4 -2.77,0.56 -0.2,0.2 -0.11,1.27 0.04,1.47 1.05,-0.04 4.13,-0.16 6.61,-0.16 2.28,0 4.84,0.11 6.16,0.16 0.16,-0.2 0.31,-1.32 0.11,-1.47 -3.64,-0.45 -4,-0.71 -5.45,-4.08 -1.76,-4.2 -7.37,-20.16 -8.37,-23.01 -0.36,-0.96 -0.6,-1.85 -0.8,-2.61 -0.16,0 -0.65,0.04 -1.67,0.04 -0.85,0 -1.47,-0.04 -1.67,-0.04 -0.11,0.71 -0.45,1.81 -0.85,2.86 -1.12,3.21 -5.85,16.05 -8.44,22.17 -1.67,3.88 -2.28,4.24 -5.92,4.69l-0 -0.04zm15.8 -24.49c0.8,2.17 2.72,7.75 3.73,10.87 0.11,0.2 -0.04,0.4 -0.16,0.4 -0.51,0.04 -2.17,0.04 -3.37,0.04 -1.92,0 -3.53,0 -4.04,-0.04 -0.16,-0.04 -0.2,-0.16 -0.2,-0.33 0.85,-2.68 2.92,-8.35 3.79,-10.85 0.04,-0.11 0.2,-0.07 0.25,-0.07l0 -0.02z"/>
   <path class="fil3" d="M233.69 381.66l-9.02 0 0 17.3 9.02 0 0 -1.43 -7.3 0 0 -6.54 6.54 0 0 -1.43 -6.54 0 0 -6.45 7.3 0 0 -1.43 0 -0.02zm20.98 12.77c0,-6.43 -9.49,-3.37 -9.49,-8.35 0,-2.01 1.67,-3.13 3.71,-3.08 2.39,0.02 3.57,1.52 3.75,2.72l1.87 0c-0.29,-2.37 -2.28,-4.2 -5.56,-4.2 -3.33,0 -5.54,1.96 -5.54,4.62 0,6.5 9.49,3.28 9.49,8.39 0,1.79 -1.41,3.19 -3.82,3.19 -2.79,0 -3.86,-1.72 -4,-3.17l-1.83 0c0.09,2.66 2.37,4.62 5.83,4.62 3.66,0 5.56,-2.37 5.56,-4.73l0.02 -0.02zm8.88 -11.3l4.82 0 0 15.85 1.72 0 0 -15.85 4.8 0 0 -1.43 -11.34 0 0 1.43zm29.89 -1.45l-9.02 0 0 17.3 9.02 0 0 -1.43 -7.3 0 0 -6.54 6.54 0 0 -1.43 -6.54 0 0 -6.45 7.3 0 0 -1.43 0 -0.02zm-7.63 -2.12l0 1.34 5.07 -2.95 0 -1.56 -5.07 3.17 0 -0zm16.59 3.59l4.82 0 0 15.85 1.72 0 0 -15.85 4.8 0 0 -1.43 -11.34 0 0 1.43zm20.87 15.85l1.74 0 0 -17.28 -1.74 0 0 17.28zm11.65 -8.66c0,5.2 3.66,8.8 8.46,8.8 3.86,0 6.72,-1.92 7.97,-5.2l-2.03 0c-0.96,2.25 -2.99,3.68 -5.94,3.68 -3.77,0 -6.67,-2.79 -6.67,-7.3 0,-4.53 2.9,-7.32 6.67,-7.32 2.95,0 4.98,1.43 5.94,3.73l2.03 0c-1.23,-3.3 -4.11,-5.25 -7.97,-5.25 -4.8,0 -8.46,3.64 -8.46,8.82l0 0.04zm38.15 8.66l1.83 0 -6.27 -17.05 -1.94 0 -6.3 17.05 1.83 0 1.52 -4.11 7.86 0 1.52 4.11 -0.05 0zm-2.03 -5.54l-6.83 0 3.42 -9.35 3.42 9.35 -0 0z"/>
   <path class="fil3" d="M160.56 314.43c0,-6.5 -9.58,-3.39 -9.58,-8.44 0,-2.03 1.7,-3.15 3.75,-3.13 2.41,0.02 3.59,1.52 3.79,2.75l1.9 0c-0.29,-2.39 -2.3,-4.24 -5.63,-4.24 -3.37,0 -5.6,1.96 -5.6,4.67 0,6.56 9.6,3.33 9.6,8.46 0,1.81 -1.43,3.21 -3.84,3.21 -2.81,0 -3.88,-1.74 -4.04,-3.19l-1.85 0c0.11,2.68 2.39,4.67 5.89,4.67 3.71,0 5.63,-2.39 5.63,-4.78l-0.02 0.02zm8.97 -11.41l4.87 0 0 16.01 1.74 0 0 -16.01 4.84 0 0 -1.45 -11.45 0 0 1.45zm20.98 9.51c0,4.62 2.79,6.67 6.34,6.67 3.55,0 6.34,-2.05 6.34,-6.67l0 -10.96 -1.74 0 0 10.98c0,3.62 -1.85,5.09 -4.58,5.09 -2.72,0 -4.62,-1.47 -4.62,-5.09l0 -10.98 -1.74 0 0 10.96zm28.59 -10.96l-5.16 0 0 17.46 5.16 0c5.83,0 9.24,-3.26 9.24,-8.68 0,-5.47 -3.42,-8.77 -9.24,-8.77zm-3.42 16.01l0 -14.55 3.42 0c4.96,0 7.46,2.79 7.46,7.32 0,4.49 -2.52,7.23 -7.46,7.23l-3.42 0zm22.72 1.45l1.74 0 0 -17.46 -1.74 0 0 17.46zm29.04 -8.73c0,-5.22 -3.73,-8.91 -8.64,-8.91 -4.89,0 -8.64,3.71 -8.64,8.91 0,5.25 3.75,8.91 8.64,8.91 4.91,0 8.64,-3.66 8.64,-8.91zm-15.47 0c0,-4.58 2.97,-7.37 6.85,-7.37 3.86,0 6.83,2.79 6.83,7.37 0,4.58 -2.97,7.39 -6.83,7.39 -3.86,0 -6.85,-2.81 -6.85,-7.39z"/>
   <line class="fil4 str0" x1="282.01" y1="308.85" x2="536.13" y2= "308.85" />
   <line class="fil4 str0" x1="133.71" y1="308.85" x2="63.68" y2= "308.85" />
   <path class="fil5" d="M394.36 144.69c0.25,0.74 1.99,-0.25 1.99,-0.25 0,-14.04 0,-28.08 0,-42.14 -0.8,-0.07 -1.59,-0.13 -2.39,-0.13 -0.71,6.79 -8.75,5.36 -18.68,1.79 -25.38,-7.84 -48.1,-5.18 -67.52,10.16 -3.26,3.39 -6.12,6.96 -8.66,10.54 0.47,-2.41 0.71,-4.73 0.87,-7.03 -1.12,4 -2.3,7.84 -3.82,11.34 -1.99,3.19 -3.73,6.41 -5.18,9.67 -1.74,2.45 -3.73,4.73 -5.96,6.72 11.76,-17.01 10.02,-32.7 5.96,-47.75 5.72,30.18 -5.8,54.09 -42.23,68.93l-29.67 -66.65c-16.79,0 -33.48,0 -50.18,0 0,0 0,3.33 0,3.33 6.52,-1.36 13.91,5.6 21.88,17.75l0 82.79 6.05 -5.98 0 -73.06c17.34,30.49 36.65,86.61 55.42,127.59 3.5,0 7.01,0 10.42,0 3.42,-8.19 6.83,-16.32 10.18,-24.51 0.96,-2.95 1.12,-5.42 0,-7.14l-22.5 -50.51c12.81,-2.7 26.41,-9.31 35.87,-17.68 -14.4,60.31 48.28,125.67 108.64,127.21 0.56,-0.91 1.03,-1.79 1.52,-2.7 -28.3,-6.96 -51.21,-25.31 -68.4,-56.18 -37.7,-115.81 42.46,-157.39 66.41,-76.07l-0.02 0zm-264.67 73.93c19.49,34.8 82.23,59.69 129.62,57.66 -1.99,-4.44 -6.92,-7.46 -15.36,-8.75 -84.94,-22.97 -117.06,-72.81 -112.61,-141.39 -4.93,34.55 -4.46,69.8 26.41,104.29 -19.02,-12.88 -30.94,-33.26 -40.8,-57.35 4.13,21.63 12.48,44.18 50.27,72.99 -12.72,-5.6 -25.29,-14.67 -37.55,-27.48l0 0 0.02 0.02zm127.33 42.39c-19.64,-17.19 -47.23,-44.49 -68.55,-47.12 -7.72,-0.91 -10.09,4.38 -16.54,10.29 4.93,-9.73 9.62,-14.35 17.01,-13.37 21.47,2.9 59.55,41.83 68.08,50.2l-0 -0z"/>
  </g>
 </g>
</svg>
