<?xml version="1.0" encoding="UTF-8"?>
<!DOCTYPE svg PUBLIC "-//W3C//DTD SVG 1.1//EN" "http://www.w3.org/Graphics/SVG/1.1/DTD/svg11.dtd">
<!-- Creator: CorelDRAW 2020 (64 Bit) -->
<svg xmlns="http://www.w3.org/2000/svg" xml:space="preserve" width="45.1545mm" height="27.4864mm" version="1.1" style="shape-rendering:geometricPrecision; text-rendering:geometricPrecision; image-rendering:optimizeQuality; fill-rule:evenodd; clip-rule:evenodd"
viewBox="0 0 221.89 135.07"
 xmlns:xlink="http://www.w3.org/1999/xlink"
 xmlns:xodm="http://www.corel.com/coreldraw/odm/2003">
 <defs>
  <style type="text/css">
   <![CDATA[
    .str0 {stroke:#93B5A3;stroke-width:1.23;stroke-miterlimit:22.9256}
    .fil2 {fill:none;fill-rule:nonzero}
    .fil0 {fill:#93B5A3;fill-rule:nonzero}
    .fil1 {fill:white;fill-rule:nonzero}
    .fil3 {fill:url(#id0)}
   ]]>
  </style>
  <linearGradient id="id0" gradientUnits="userSpaceOnUse" x1="28.52" y1="40.78" x2="153.68" y2="40.78">
   <stop offset="0" style="stop-opacity:1; stop-color:#C2A152"/>
   <stop offset="0.341176" style="stop-opacity:1; stop-color:#F9E582"/>
   <stop offset="0.709804" style="stop-opacity:1; stop-color:#D7B85D"/>
   <stop offset="1" style="stop-opacity:1; stop-color:#CBAC5A"/>
  </linearGradient>
 </defs>
 <g id="Camada_x0020_1">
  <metadata id="CorelCorpID_0Corel-Layer"/>
  <path class="fil0" d="M0.78 106.17c0.77,0.11 1.22,0.2 1.56,0.32 0.52,0.18 0.63,0.61 0.63,1 -0.14,2.1 -0.59,7.94 -0.81,9.65 -0.14,1.11 -0.29,1.4 -0.99,1.61 -0.29,0.07 -0.68,0.11 -1.11,0.18 -0.07,0.09 -0.09,0.57 0,0.66 0.38,0 1.49,-0.07 2.74,-0.07 1.15,0 2.24,0.07 2.67,0.07 0.11,-0.07 0.16,-0.57 0.07,-0.66 -0.68,-0.09 -1.06,-0.14 -1.42,-0.25 -0.68,-0.18 -0.75,-0.63 -0.75,-1.47 0.02,-1.88 0.32,-6.92 0.45,-8.91 0.02,-0.07 0.07,-0.09 0.11,-0.04 0.79,1.88 4.18,9.43 4.75,11.33 0.09,0.02 0.59,0 0.66,-0.05 0.77,-2.17 4.48,-9.86 5.09,-11.24 0.05,-0.04 0.09,-0.04 0.11,0 0.05,2.03 0.11,7.91 0.09,9.41 0,0.48 -0.11,0.84 -0.61,0.97 -0.29,0.09 -0.68,0.16 -1.22,0.25 -0.09,0.09 -0.07,0.57 0,0.66 0.59,-0.02 1.76,-0.07 3.01,-0.07 1.38,0 2.44,0.07 2.98,0.07 0.09,-0.14 0.11,-0.54 0.02,-0.66 -0.54,-0.07 -0.93,-0.11 -1.24,-0.18 -0.68,-0.18 -0.81,-0.5 -0.88,-1.29 -0.11,-1.56 -0.29,-8.73 -0.25,-10.13 0,-0.47 0.16,-0.77 0.63,-0.9 0.34,-0.09 0.77,-0.14 1.47,-0.25 0.09,-0.09 0.09,-0.59 0,-0.63 -0.97,0 -1.79,0.07 -4,0.07 -0.05,0.38 -0.18,0.72 -0.38,1.2 -0.97,2.24 -4,8.5 -4.39,9.2 -0.02,0.05 -0.07,0.05 -0.09,0.02 -0.36,-0.63 -2.98,-6.2 -4.3,-9.11 -0.25,-0.52 -0.36,-0.84 -0.43,-1.31 -2.31,0 -3.35,-0.07 -4.12,-0.07 -0.09,0.05 -0.14,0.57 -0.04,0.63zm22.16 12.75c-0.09,0.09 -0.09,0.57 0,0.66 0.43,0 1.13,-0.07 2.42,-0.07 1.27,0 2.42,0.07 2.89,0.07 0.07,-0.09 0.11,-0.57 0.05,-0.66 -0.43,-0.04 -0.81,-0.11 -1.09,-0.18 -0.7,-0.18 -0.75,-0.43 -0.72,-0.81 0.05,-0.54 0.77,-2.44 1.22,-3.66 0.02,-0.07 0.14,-0.2 0.23,-0.2l4 0c0.05,0 0.18,0.09 0.2,0.16 0.41,1.02 1.09,2.92 1.36,3.89 0.07,0.2 0.05,0.43 -0.25,0.57 -0.34,0.11 -0.75,0.18 -1.24,0.25 -0.09,0.09 -0.05,0.57 0.02,0.66 0.47,-0.02 1.85,-0.07 2.96,-0.07 1.02,0 2.17,0.05 2.76,0.07 0.07,-0.09 0.14,-0.59 0.05,-0.66 -1.63,-0.2 -1.79,-0.32 -2.44,-1.83 -0.79,-1.88 -3.3,-9.03 -3.75,-10.31 -0.16,-0.43 -0.27,-0.83 -0.36,-1.17 -0.07,0 -0.29,0.02 -0.75,0.02 -0.38,0 -0.66,-0.02 -0.75,-0.02 -0.05,0.32 -0.2,0.81 -0.38,1.28 -0.5,1.44 -2.62,7.19 -3.78,9.93 -0.75,1.74 -1.02,1.9 -2.65,2.1zm7.08 -10.97c0.36,0.97 1.22,3.47 1.67,4.87 0.05,0.09 -0.02,0.18 -0.07,0.18 -0.23,0.02 -0.97,0.02 -1.51,0.02 -0.86,0 -1.58,0 -1.81,-0.02 -0.07,-0.02 -0.09,-0.07 -0.09,-0.15 0.38,-1.2 1.31,-3.74 1.7,-4.86 0.02,-0.05 0.09,-0.03 0.11,-0.03zm12.26 -1.78c0.45,0.04 0.88,0.11 1.22,0.18 0.56,0.14 0.72,0.41 0.75,1.04 0.02,0.7 0.02,2.96 0.02,5.27 0,1.24 -0.02,4.32 -0.05,4.84 -0.05,0.86 -0.23,1.13 -0.77,1.24 -0.29,0.07 -0.66,0.11 -1.15,0.18 -0.11,0.09 -0.11,0.57 0,0.66 0.43,0 1.4,-0.07 2.87,-0.07 1.49,0 2.58,0.07 3.01,0.07 0.11,-0.09 0.16,-0.57 0.05,-0.66 -0.52,-0.07 -0.93,-0.14 -1.27,-0.2 -0.52,-0.11 -0.68,-0.32 -0.72,-1.09 -0.05,-0.75 -0.05,-2.85 -0.05,-4.09 0,-0.02 0.05,-0.14 0.09,-0.14 0.32,0 1.29,-0.02 1.61,0.02 0.18,0 0.41,0.11 0.57,0.34 0.86,1.22 2.24,3.48 3.1,4.5 0.38,0.47 0.75,0.75 1.09,0.9 0.84,0.41 2.65,0.48 3.62,0.43 0.14,-0.05 0.18,-0.57 0.14,-0.63 -1.36,-0.18 -1.67,-0.29 -2.6,-1.24 -1.11,-1.13 -2.89,-3.62 -3.69,-4.88 -0.02,-0.05 0,-0.11 0.05,-0.16 1.36,-0.61 2.58,-1.74 2.58,-3.64 0,-1.9 -1.4,-3.48 -4.05,-3.48 -0.9,0 -2.08,0.04 -3.75,0.04 -0.7,0 -2.06,-0.07 -2.6,-0.07 -0.09,0.05 -0.14,0.54 -0.04,0.63zm4.91 0.16c2.42,0 3.5,1.24 3.5,3.37 0,1.47 -0.75,2.28 -1.47,2.62 -0.43,0.18 -1.4,0.23 -2.92,0.18 -0.07,0 -0.11,-0.07 -0.11,-0.11 0,-1.76 0,-4.84 0.05,-5.61 0,-0.11 0.09,-0.29 0.16,-0.34 0.23,-0.09 0.61,-0.11 0.79,-0.11zm13.23 -0.16c0.61,0.09 1.04,0.14 1.38,0.25 0.47,0.14 0.52,0.47 0.57,1.04 0.07,1.06 0.07,2.53 0.07,4.39 0,2.96 0,5.29 -0.09,5.92 -0.05,0.52 -0.14,0.84 -0.79,0.97 -0.32,0.09 -0.66,0.14 -1.15,0.18 -0.09,0.07 -0.09,0.59 0.02,0.66 0.72,0 1.85,-0.07 3.14,-0.07 1.11,0 2.37,0.07 2.92,0.07 0.09,-0.07 0.14,-0.57 0.05,-0.66 -0.54,-0.07 -1.02,-0.14 -1.33,-0.23 -0.68,-0.16 -0.77,-0.54 -0.79,-1.2 -0.05,-0.79 -0.05,-2.96 -0.05,-5.2 0,-1.97 -0.02,-3.87 0.05,-4.82 0.04,-0.7 0.14,-1 0.66,-1.13 0.27,-0.07 0.66,-0.11 1.15,-0.18 0.07,-0.11 0.05,-0.54 -0.02,-0.63 -0.57,0 -1.63,0.07 -2.8,0.07 -1.18,0 -2.46,-0.07 -2.94,-0.07 -0.07,0.07 -0.11,0.54 -0.02,0.63zm10.4 12.75c-0.09,0.09 -0.09,0.57 0,0.66 0.43,0 1.13,-0.07 2.42,-0.07 1.27,0 2.42,0.07 2.89,0.07 0.07,-0.09 0.11,-0.57 0.04,-0.66 -0.43,-0.04 -0.81,-0.11 -1.09,-0.18 -0.7,-0.18 -0.75,-0.43 -0.72,-0.81 0.05,-0.54 0.77,-2.44 1.22,-3.66 0.02,-0.07 0.14,-0.2 0.23,-0.2l4 0c0.05,0 0.18,0.09 0.2,0.16 0.41,1.02 1.09,2.92 1.36,3.89 0.07,0.2 0.05,0.43 -0.25,0.57 -0.34,0.11 -0.75,0.18 -1.24,0.25 -0.09,0.09 -0.05,0.57 0.02,0.66 0.47,-0.02 1.85,-0.07 2.96,-0.07 1.02,0 2.17,0.05 2.76,0.07 0.07,-0.09 0.14,-0.59 0.05,-0.66 -1.63,-0.2 -1.79,-0.32 -2.44,-1.83 -0.79,-1.88 -3.3,-9.03 -3.75,-10.31 -0.16,-0.43 -0.27,-0.83 -0.36,-1.17 -0.07,0 -0.29,0.02 -0.75,0.02 -0.38,0 -0.66,-0.02 -0.75,-0.02 -0.05,0.32 -0.2,0.81 -0.38,1.28 -0.5,1.44 -2.62,7.19 -3.78,9.93 -0.75,1.74 -1.02,1.9 -2.65,2.1zm7.08 -10.97c0.36,0.97 1.22,3.47 1.67,4.87 0.05,0.09 -0.02,0.18 -0.07,0.18 -0.23,0.02 -0.97,0.02 -1.52,0.02 -0.86,0 -1.58,0 -1.81,-0.02 -0.07,-0.02 -0.09,-0.07 -0.09,-0.15 0.38,-1.2 1.31,-3.74 1.7,-4.86 0.02,-0.05 0.09,-0.03 0.11,-0.03zm11.92 -1.78c0.88,0.09 1.38,0.2 1.81,0.5 0.5,0.27 0.61,0.77 0.61,1.11 -0.05,4.75 -0.11,8.43 -0.2,9.61 -0.04,0.88 -0.34,1.18 -0.86,1.33 -0.34,0.09 -0.7,0.16 -1.2,0.2 -0.07,0.07 -0.07,0.59 0,0.66 0.47,0 1.33,-0.07 2.71,-0.07 1.27,0 2.28,0.07 2.83,0.07 0.07,-0.09 0.14,-0.57 0.05,-0.66 -0.57,-0.07 -1.02,-0.11 -1.36,-0.23 -0.59,-0.14 -0.88,-0.45 -0.93,-1.36 -0.07,-1.27 -0.07,-6.56 -0.02,-8.89 0,-0.02 0.07,-0.05 0.09,-0.02 1.36,1.7 7.57,9.47 8.77,11.19 0.27,-0.02 1.31,-0.02 1.56,0 -0.02,-0.75 -0.05,-2.06 -0.05,-3.1 0.07,-4.27 0.05,-7.17 0.18,-8.91 0.04,-0.61 0.18,-1.02 0.77,-1.22 0.29,-0.09 0.59,-0.16 0.99,-0.23 0.09,-0.09 0.09,-0.57 0,-0.63 -0.29,0 -1.63,0.07 -2.4,0.07 -1.38,0 -2.42,-0.07 -3.01,-0.07 -0.07,0.07 -0.09,0.54 0,0.63 0.61,0.07 1.11,0.16 1.51,0.27 0.68,0.18 0.81,0.54 0.86,1.2 0.11,1.63 0.09,5.86 0.09,8.95 -0.02,0.02 -0.05,0.04 -0.09,0.02 -1.09,-1.27 -5.72,-6.92 -8.03,-9.81 -0.59,-0.75 -0.72,-0.99 -0.81,-1.22 -0.18,0.02 -0.57,0.02 -1.02,0.02 -1.13,0 -2.26,-0.07 -2.83,-0.07 -0.09,0.07 -0.11,0.57 -0.04,0.63zm20.06 12.75c-0.09,0.09 -0.09,0.57 0,0.66 0.43,0 1.13,-0.07 2.42,-0.07 1.27,0 2.42,0.07 2.89,0.07 0.07,-0.09 0.11,-0.57 0.05,-0.66 -0.43,-0.04 -0.81,-0.11 -1.09,-0.18 -0.7,-0.18 -0.75,-0.43 -0.72,-0.81 0.05,-0.54 0.77,-2.44 1.22,-3.66 0.02,-0.07 0.14,-0.2 0.23,-0.2l4 0c0.05,0 0.18,0.09 0.2,0.16 0.41,1.02 1.09,2.92 1.36,3.89 0.07,0.2 0.05,0.43 -0.25,0.57 -0.34,0.11 -0.75,0.18 -1.24,0.25 -0.09,0.09 -0.05,0.57 0.02,0.66 0.47,-0.02 1.85,-0.07 2.96,-0.07 1.02,0 2.17,0.05 2.76,0.07 0.07,-0.09 0.14,-0.59 0.05,-0.66 -1.63,-0.2 -1.79,-0.32 -2.44,-1.83 -0.79,-1.88 -3.3,-9.03 -3.75,-10.31 -0.16,-0.43 -0.27,-0.83 -0.36,-1.17 -0.07,0 -0.29,0.02 -0.75,0.02 -0.38,0 -0.66,-0.02 -0.75,-0.02 -0.05,0.32 -0.2,0.81 -0.38,1.28 -0.5,1.44 -2.62,7.19 -3.78,9.93 -0.75,1.74 -1.02,1.9 -2.65,2.1zm7.08 -10.97c0.36,0.97 1.22,3.47 1.67,4.87 0.05,0.09 -0.02,0.18 -0.07,0.18 -0.23,0.02 -0.97,0.02 -1.51,0.02 -0.86,0 -1.58,0 -1.81,-0.02 -0.07,-0.02 -0.09,-0.07 -0.09,-0.15 0.38,-1.2 1.31,-3.74 1.7,-4.86 0.02,-0.05 0.09,-0.03 0.11,-0.03zm28.69 1.23c0.02,0.11 0.61,0.04 0.7,-0.05 0.02,-1.02 0.23,-2.69 0.36,-3.48 -1.02,-0.07 -2.53,-0.45 -4.45,-0.45 -1.92,0 -3.39,0.38 -4.59,1.04 -2.49,1.33 -3.6,3.78 -3.6,6.22 0,4.7 2.8,7.46 7.85,7.46 1.38,0 2.8,-0.34 3.46,-0.56 0.52,-0.32 1.49,-2.08 1.72,-3.05 -0.05,-0.16 -0.43,-0.36 -0.54,-0.36 -0.59,1 -1.13,1.76 -1.7,2.22 -0.57,0.52 -1.51,0.77 -2.49,0.77 -4.02,0 -6.04,-3.05 -6.04,-6.67 0,-3.82 1.88,-6.24 5.16,-6.24 1.09,0 2.06,0.14 2.8,0.5 0.84,0.41 1.13,0.86 1.36,2.67zm14.99 10.74c2.26,0 4.54,-1.02 5.95,-2.96 0.93,-1.29 1.38,-2.71 1.38,-4.7 0,-3.69 -2.33,-7.05 -6.94,-7.05 -2.33,0 -4.79,1.15 -6.04,2.87 -0.9,1.24 -1.4,2.69 -1.4,4.36 0,2.03 0.59,3.93 1.94,5.43 1.18,1.27 2.94,2.06 5.11,2.06zm0.86 -0.99c-1.15,0 -2.03,-0.27 -2.83,-0.77 -1.99,-1.29 -2.87,-3.87 -2.87,-6.24 0,-2.31 0.77,-4.34 2.42,-5.31 0.56,-0.32 1.24,-0.5 2.03,-0.5 1.18,0 2.15,0.34 2.96,0.9 1.79,1.24 2.6,3.59 2.6,6.04 0,2.08 -0.5,3.96 -1.9,5.09 -0.59,0.5 -1.47,0.79 -2.42,0.79zm13.66 -3.3c-0.11,-0.07 -0.66,0.07 -0.7,0.2 0.07,0.77 0.43,3.1 0.63,3.39 0.54,0.27 1.9,0.7 3.26,0.7 3.19,0 5.02,-1.97 5.02,-4.18 0,-1.65 -1,-2.6 -2.17,-3.35 -0.77,-0.45 -1.9,-0.99 -2.8,-1.58 -0.95,-0.66 -1.54,-1.31 -1.54,-2.58 0.02,-1.11 0.81,-2.31 2.37,-2.31 0.68,0 1.33,0.11 1.83,0.47 0.54,0.36 0.75,0.99 0.88,2.33 0.07,0.11 0.59,0.11 0.66,-0.02 0.09,-1.09 0.23,-2.35 0.38,-3.1 -0.95,-0.11 -1.88,-0.41 -3.44,-0.41 -2.46,0 -4.45,1.4 -4.45,3.82 0,2.03 1.36,3.14 3.37,4.3 2.04,1.2 2.96,1.9 2.96,3.39 0,1.7 -1.27,2.37 -2.42,2.37 -0.86,0 -1.65,-0.18 -2.22,-0.61 -0.77,-0.54 -1.22,-1.45 -1.63,-2.85zm24.01 3.3c-0.79,-0.09 -1.17,-0.14 -1.54,-0.25 -0.52,-0.14 -0.7,-0.41 -0.77,-1.2 -0.07,-1.15 -0.07,-7.42 -0.07,-10.74 0,-0.07 0.05,-0.16 0.11,-0.18 0.52,-0.02 2.1,-0.02 3.17,0 0.43,0.02 0.7,0.2 0.88,0.66 0.18,0.43 0.29,1.22 0.36,2.01 0.07,0.09 0.66,0.09 0.72,-0.02 0.11,-1.22 0.29,-3.03 0.52,-3.82 -0.02,-0.05 -0.16,-0.11 -0.23,-0.11 -0.66,0.29 -1.15,0.34 -2.19,0.34l-8.37 0c-0.84,0 -1.42,-0.14 -1.83,-0.34 -0.05,-0.02 -0.25,0.05 -0.25,0.09 -0.05,0.97 -0.27,2.78 -0.45,3.73 0.05,0.11 0.61,0.25 0.7,0.18 0.32,-0.86 0.61,-1.67 0.88,-2.1 0.27,-0.45 0.57,-0.61 0.95,-0.63 0.86,-0.02 2.53,-0.02 2.92,0 0.07,0 0.16,0.09 0.16,0.18 0,3.75 -0.02,8.59 -0.09,10.36 -0.02,1.04 -0.14,1.49 -0.86,1.63 -0.34,0.09 -0.9,0.16 -1.6,0.23 -0.07,0.09 -0.09,0.54 0,0.66 0.59,0 1.74,-0.07 3.41,-0.07 1.38,0 2.71,0.07 3.37,0.07 0.11,-0.05 0.16,-0.54 0.09,-0.66zm7.85 0c-0.09,0.09 -0.09,0.57 0,0.66 0.43,0 1.13,-0.07 2.42,-0.07 1.27,0 2.42,0.07 2.89,0.07 0.07,-0.09 0.11,-0.57 0.05,-0.66 -0.43,-0.04 -0.81,-0.11 -1.09,-0.18 -0.7,-0.18 -0.75,-0.43 -0.72,-0.81 0.05,-0.54 0.77,-2.44 1.22,-3.66 0.02,-0.07 0.14,-0.2 0.23,-0.2l4 0c0.05,0 0.18,0.09 0.2,0.16 0.41,1.02 1.09,2.92 1.36,3.89 0.07,0.2 0.05,0.43 -0.25,0.57 -0.34,0.11 -0.75,0.18 -1.24,0.25 -0.09,0.09 -0.05,0.57 0.02,0.66 0.47,-0.02 1.85,-0.07 2.96,-0.07 1.02,0 2.17,0.05 2.76,0.07 0.07,-0.09 0.14,-0.59 0.05,-0.66 -1.63,-0.2 -1.79,-0.32 -2.44,-1.83 -0.79,-1.88 -3.3,-9.03 -3.75,-10.31 -0.16,-0.43 -0.27,-0.83 -0.36,-1.17 -0.07,0 -0.29,0.02 -0.75,0.02 -0.38,0 -0.66,-0.02 -0.75,-0.02 -0.05,0.32 -0.2,0.81 -0.38,1.28 -0.5,1.44 -2.62,7.19 -3.78,9.93 -0.75,1.74 -1.02,1.9 -2.65,2.1zm7.08 -10.97c0.36,0.97 1.22,3.47 1.67,4.87 0.05,0.09 -0.02,0.18 -0.07,0.18 -0.23,0.02 -0.97,0.02 -1.51,0.02 -0.86,0 -1.58,0 -1.81,-0.02 -0.07,-0.02 -0.09,-0.07 -0.09,-0.15 0.38,-1.2 1.31,-3.74 1.7,-4.86 0.02,-0.05 0.09,-0.03 0.11,-0.03z"/>
  <path class="fil1" d="M80.81 127.24l-4.04 0 0 7.75 4.04 0 0 -0.64 -3.27 0 0 -2.93 2.93 0 0 -0.64 -2.93 0 0 -2.89 3.27 0 0 -0.64zm9.4 5.72c0,-2.88 -4.25,-1.51 -4.25,-3.74 0,-0.9 0.75,-1.4 1.66,-1.38 1.07,0.01 1.6,0.68 1.68,1.22l0.84 0c-0.13,-1.06 -1.02,-1.88 -2.49,-1.88 -1.49,0 -2.48,0.88 -2.48,2.07 0,2.91 4.25,1.47 4.25,3.76 0,0.8 -0.63,1.43 -1.71,1.43 -1.25,0 -1.73,-0.77 -1.79,-1.42l-0.82 0c0.04,1.19 1.06,2.07 2.61,2.07 1.64,0 2.49,-1.06 2.49,-2.12zm3.98 -5.06l2.16 0 0 7.1 0.77 0 0 -7.1 2.15 0 0 -0.64 -5.08 0 0 0.64zm13.39 -0.65l-4.04 0 0 7.75 4.04 0 0 -0.64 -3.27 0 0 -2.93 2.93 0 0 -0.64 -2.93 0 0 -2.89 3.27 0 0 -0.64zm-3.42 -0.95l0 0.6 2.27 -1.32 0 -0.7 -2.27 1.42zm7.43 1.61l2.16 0 0 7.1 0.77 0 0 -7.1 2.15 0 0 -0.64 -5.08 0 0 0.64zm9.35 7.1l0.78 0 0 -7.74 -0.78 0 0 7.74zm5.22 -3.88c0,2.33 1.64,3.94 3.79,3.94 1.73,0 3.01,-0.86 3.57,-2.33l-0.91 0c-0.43,1.01 -1.34,1.65 -2.66,1.65 -1.69,0 -2.99,-1.25 -2.99,-3.27 0,-2.03 1.3,-3.28 2.99,-3.28 1.32,0 2.23,0.64 2.66,1.67l0.91 0c-0.55,-1.48 -1.84,-2.35 -3.57,-2.35 -2.15,0 -3.79,1.63 -3.79,3.95zm17.09 3.88l0.82 0 -2.81 -7.64 -0.87 0 -2.82 7.64 0.82 0 0.68 -1.84 3.52 0 0.68 1.84zm-0.91 -2.48l-3.06 0 1.53 -4.19 1.53 4.19z"/>
  <path class="fil1" d="M48.05 97.12c0,-2.91 -4.29,-1.52 -4.29,-3.78 0,-0.91 0.76,-1.41 1.68,-1.4 1.08,0.01 1.61,0.68 1.7,1.23l0.85 0c-0.13,-1.07 -1.03,-1.9 -2.52,-1.9 -1.51,0 -2.51,0.88 -2.51,2.09 0,2.94 4.3,1.49 4.3,3.79 0,0.81 -0.64,1.44 -1.72,1.44 -1.26,0 -1.74,-0.78 -1.81,-1.43l-0.83 0c0.05,1.2 1.07,2.09 2.64,2.09 1.66,0 2.52,-1.07 2.52,-2.14zm4.02 -5.11l2.18 0 0 7.17 0.78 0 0 -7.17 2.17 0 0 -0.65 -5.13 0 0 0.65zm9.4 4.26c0,2.07 1.25,2.99 2.84,2.99 1.59,0 2.84,-0.92 2.84,-2.99l0 -4.91 -0.78 0 0 4.92c0,1.62 -0.83,2.28 -2.05,2.28 -1.22,0 -2.07,-0.66 -2.07,-2.28l0 -4.92 -0.78 0 0 4.91zm12.81 -4.91l-2.31 0 0 7.82 2.31 0c2.61,0 4.14,-1.46 4.14,-3.89 0,-2.45 -1.53,-3.93 -4.14,-3.93zm-1.53 7.17l0 -6.52 1.53 0c2.22,0 3.34,1.25 3.34,3.28 0,2.01 -1.13,3.24 -3.34,3.24l-1.53 0zm10.18 0.65l0.78 0 0 -7.82 -0.78 0 0 7.82zm13.01 -3.91c0,-2.34 -1.67,-3.99 -3.87,-3.99 -2.19,0 -3.87,1.66 -3.87,3.99 0,2.35 1.68,3.99 3.87,3.99 2.2,0 3.87,-1.64 3.87,-3.99zm-6.93 0c0,-2.05 1.33,-3.3 3.07,-3.3 1.73,0 3.06,1.25 3.06,3.3 0,2.05 -1.33,3.31 -3.06,3.31 -1.73,0 -3.07,-1.26 -3.07,-3.31z"/>
  <line class="fil2 str0" x1="102.46" y1="94.62" x2="216.3" y2= "94.62" />
  <line class="fil2 str0" x1="36.02" y1="94.62" x2="4.65" y2= "94.62" />
  <path class="fil3" d="M152.79 21.08c0.11,0.33 0.89,-0.11 0.89,-0.11 0,-6.29 0,-12.58 0,-18.88 -0.36,-0.03 -0.71,-0.06 -1.07,-0.06 -0.32,3.04 -3.92,2.4 -8.37,0.8 -11.37,-3.51 -21.55,-2.32 -30.25,4.55 -1.46,1.52 -2.74,3.12 -3.88,4.72 0.21,-1.08 0.32,-2.12 0.39,-3.15 -0.5,1.79 -1.03,3.51 -1.71,5.08 -0.89,1.43 -1.67,2.87 -2.32,4.33 -0.78,1.1 -1.67,2.12 -2.67,3.01 5.27,-7.62 4.49,-14.65 2.67,-21.39 2.56,13.52 -2.6,24.23 -18.92,30.88l-13.29 -29.86c-7.52,0 -15,0 -22.48,0 0,0 0,1.49 0,1.49 2.92,-0.61 6.23,2.51 9.8,7.95l0 37.09 2.71 -2.68 0 -32.73c7.77,13.66 16.42,38.8 24.83,57.16 1.57,0 3.14,0 4.67,0 1.53,-3.67 3.06,-7.31 4.56,-10.98 0.43,-1.32 0.5,-2.43 0,-3.2l-10.08 -22.63c5.74,-1.21 11.83,-4.17 16.07,-7.92 -6.45,27.02 21.63,56.3 48.67,56.99 0.25,-0.41 0.46,-0.8 0.68,-1.21 -12.68,-3.12 -22.94,-11.34 -30.64,-25.17 -16.89,-51.88 19.02,-70.51 29.75,-34.08zm-118.57 33.12c8.73,15.59 36.84,26.74 58.07,25.83 -0.89,-1.99 -3.1,-3.34 -6.88,-3.92 -38.05,-10.29 -52.44,-32.62 -50.45,-63.34 -2.21,15.48 -2,31.27 11.83,46.72 -8.52,-5.77 -13.86,-14.9 -18.28,-25.69 1.85,9.69 5.59,19.79 22.52,32.7 -5.7,-2.51 -11.33,-6.57 -16.82,-12.31l0 0zm57.04 18.99c-8.8,-7.7 -21.16,-19.93 -30.71,-21.11 -3.46,-0.41 -4.52,1.96 -7.41,4.61 2.21,-4.36 4.31,-6.43 7.62,-5.99 9.62,1.3 26.68,18.74 30.5,22.49z"/>
 </g>
</svg>
